# xmcd CD database file
#
# Track frame offsets:
#	150
#	37096
#	83063
#	123224
#	150994
#	186635
#	227263
#	264611
#	304150
#
# Disc length: 4539 seconds
#
# Revision: 0
# Processed by: cddbd v1.5.2PL0 Copyright (c) Steve Scherf et al.
# Submitted via: CDex 1.51
#
DISCID=6b11b909
DTITLE=Keith Jarrett - Yesterdays
DYEAR=2009
DGENRE=Jazz
TTITLE0=Strollin'
TTITLE1=You Took Advantage Of Me
TTITLE2=Yesterdays
TTITLE3=Shaw'nuff
TTITLE4=You've Changed
TTITLE5=Scrapple From The Apple
TTITLE6=A Sleepin' Bee
TTITLE7=Smoke Gets In Your Eyes
TTITLE8=Stella By Starlight
EXTD=YEAR: 2009
EXTT0=
EXTT1=
EXTT2=
EXTT3=
EXTT4=
EXTT5=
EXTT6=
EXTT7=
EXTT8=
PLAYORDER=
